<svg xmlns="http://www.w3.org/2000/svg" width="40" height="40" viewBox="0 0 40 40">
  <g id="Group_396" data-name="Group 396" transform="translate(-346 -1186)">
    <g id="eyedrops" transform="translate(360.761 1196.064)">
      <path id="Path_45" data-name="Path 45" d="M-568.271,223.72h1.175v-1.16h-8.245v1.176h1.18V224.9h5.887Z" transform="translate(576.527 -216.61)" fill="#424a52"/>
      <path id="Path_46" data-name="Path 46" d="M-548.368,109.32c.011.576-.012,1.153.041,1.722a3.218,3.218,0,0,0,.992,2.037.447.447,0,0,1,.152.376c-.013.194,0,.39,0,.6h-5.91c0-.257-.005-.516,0-.774,0-.049.053-.1.092-.141a3.541,3.541,0,0,0,1.085-2.662V109.32Z" transform="translate(555.45 -109.32)" fill="#de3b21"/>
      <path id="Path_47" data-name="Path 47" d="M-587.574,300.357h-10.212a.216.216,0,0,1-.215-.215h0v-8.547a1.774,1.774,0,0,1,1.929-1.86c2.241.06,4.483.1,6.724,0a1.776,1.776,0,0,1,1.968,1.842v8.587h0a.191.191,0,0,1-.056.138A.192.192,0,0,1-587.574,300.357Zm-5.107-8.233c-.023.014-.039.017-.044.027-.52.9-1.064,1.782-1.55,2.7a1.616,1.616,0,0,0,.223,1.886,1.673,1.673,0,0,0,1.816.582,1.752,1.752,0,0,0,1.076-2.577c-.473-.843-.966-1.673-1.45-2.509C-592.63,292.194-592.657,292.159-592.681,292.123Z" transform="translate(598 -280.228)" fill="#424a52"/>
      <path id="Path_48" data-name="Path 48" d="M-568.242,223.758v1.174h-5.887v-1.158h-1.18V222.6h8.243v1.158Z" transform="translate(576.499 -216.648)" fill="#de3b21"/>
      <path id="Path_49" data-name="Path 49" d="M-507.623,379.53c.195.343.38.641.537.953a.563.563,0,0,1-.189.7.572.572,0,0,1-.723-.022.557.557,0,0,1-.15-.705C-507.991,380.154-507.815,379.865-507.623,379.53Z" transform="translate(512.932 -365.333)" fill="#424a52"/>
    </g>
    <g id="Ellipse_15" data-name="Ellipse 15" transform="translate(346 1186)" fill="none" stroke="#424a52" stroke-width="2">
      <circle cx="20" cy="20" r="20" stroke="none"/>
      <circle cx="20" cy="20" r="19" fill="none"/>
    </g>
  </g>
</svg>
