<svg xmlns="http://www.w3.org/2000/svg" width="60" height="60" viewBox="0 0 60 60">
  <g id="Group_72" data-name="Group 72" transform="translate(-1340 -218)">
    <g id="Path_34" data-name="Path 34" transform="translate(1340 218)" fill="none">
      <path d="M30,0A30,30,0,1,1,0,30,30,30,0,0,1,30,0Z" stroke="none"/>
      <path d="M 30 2 C 26.21913909912109 2 22.55244064331055 2.740039825439453 19.10174942016602 4.199558258056641 C 15.76776885986328 5.609710693359375 12.77312850952148 7.628890991210938 10.20101165771484 10.20101165771484 C 7.628890991210938 12.77312850952148 5.609710693359375 15.76776885986328 4.199558258056641 19.10174942016602 C 2.740039825439453 22.55244064331055 2 26.21913909912109 2 30 C 2 33.78086090087891 2.740039825439453 37.44755935668945 4.199558258056641 40.89825057983398 C 5.609710693359375 44.23223114013672 7.628890991210938 47.22686767578125 10.20101165771484 49.79898834228516 C 12.77312850952148 52.37110900878906 15.76776885986328 54.39028930664062 19.10174942016602 55.80043792724609 C 22.55244064331055 57.25996017456055 26.21913909912109 58 30 58 C 33.78086090087891 58 37.44755935668945 57.25996017456055 40.89825057983398 55.80043792724609 C 44.23223114013672 54.39028930664062 47.22686767578125 52.37110900878906 49.79898834228516 49.79898834228516 C 52.37110900878906 47.22686767578125 54.39028930664062 44.23223114013672 55.80043792724609 40.89825057983398 C 57.25996017456055 37.44755935668945 58 33.78086090087891 58 30 C 58 26.21913909912109 57.25996017456055 22.55244064331055 55.80043792724609 19.10174942016602 C 54.39028930664062 15.76776885986328 52.37110900878906 12.77312850952148 49.79898834228516 10.20101165771484 C 47.22686767578125 7.628890991210938 44.23223114013672 5.609710693359375 40.89825057983398 4.199558258056641 C 37.44755935668945 2.740039825439453 33.78086090087891 2 30 2 M 30 0 C 46.56853866577148 0 60 13.43146133422852 60 30 C 60 46.56853866577148 46.56853866577148 60 30 60 C 13.43146133422852 60 0 46.56853866577148 0 30 C 0 13.43146133422852 13.43146133422852 0 30 0 Z" stroke="none" fill="#fff"/>
    </g>
    <g id="satelite" transform="translate(1358.968 233.001)">
      <path id="Path_39" data-name="Path 39" d="M-637.506,829.388a10.073,10.073,0,0,0-12.214.006c.139.185.277.371.419.555s.282.356.4.516a8.891,8.891,0,0,1,10.569.005Zm-9.547,3.579a5.748,5.748,0,0,1,6.876,0l.834-1.09a6.936,6.936,0,0,0-8.536.02Zm1.032,1.469.874,1.084a2.512,2.512,0,0,1,3.062,0l.864-1.082A3.827,3.827,0,0,0-646.021,834.436Z" transform="translate(654.927 -827.33)" fill="#fff"/>
      <path id="Path_40" data-name="Path 40" d="M-703.9,954.842v-1.384h3.5l1.425-4.455a11.311,11.311,0,0,1-7.408-5.39,11.136,11.136,0,0,1-1.5-6.354h10.515v-2.9h1.432v2.883h10.516a11.291,11.291,0,0,1-8.884,11.771c.471,1.476.94,2.948,1.415,4.437h3.5v1.392Zm9.513-1.408c-.445-1.389-.877-2.748-1.324-4.1-.021-.061-.166-.114-.254-.116-.432-.01-.865.021-1.295-.008-.223-.015-.312.045-.375.25-.273.891-.56,1.774-.842,2.66-.136.431-.267.863-.415,1.317Z" transform="translate(707.95 -924.842)" fill="#fff"/>
      <path id="Path_41" data-name="Path 41" d="M-637.515,829.388l-.822,1.082a8.9,8.9,0,0,0-10.569-.005c-.123-.156-.267-.334-.4-.516l-.419-.555A10.075,10.075,0,0,1-637.515,829.388Z" transform="translate(654.936 -827.33)" fill="#fff"/>
      <path id="Path_42" data-name="Path 42" d="M-628.256,864.579l-.824-1.073a6.905,6.905,0,0,1,8.515-.02l-.831,1.09A5.728,5.728,0,0,0-628.256,864.579Z" transform="translate(636.138 -858.943)" fill="#fff"/>
      <path id="Path_43" data-name="Path 43" d="M-608.23,898.579a3.812,3.812,0,0,1,4.788,0c-.286.356-.571.717-.862,1.082a2.511,2.511,0,0,0-3.055,0Z" transform="translate(617.142 -891.464)" fill="#fff"/>
    </g>
  </g>
</svg>
