<svg xmlns="http://www.w3.org/2000/svg" width="60" height="60" viewBox="0 0 60 60">
  <g id="Group_72" data-name="Group 72" transform="translate(-1340 -218)">
    <g id="Ellipse_12" data-name="Ellipse 12" transform="translate(1340 218)" fill="none" stroke="#424a52" stroke-width="2">
      <circle cx="30" cy="30" r="30" stroke="none"/>
      <circle cx="30" cy="30" r="29" fill="none"/>
    </g>
    <g id="competence" transform="translate(1355.72 230.689)">
      <path id="Path_113" data-name="Path 113" d="M-1765.1-1320c.414.1.831.183,1.241.295a13.17,13.17,0,0,1,8.666,7.106,18.832,18.832,0,0,1,1.017,2.857.906.906,0,0,1-.827,1.192,2.374,2.374,0,0,1-.3.014q-3.4,0-6.8.005a.491.491,0,0,1-.462-.239,10.193,10.193,0,0,0-3.453-3.148.436.436,0,0,1-.253-.445c.008-2.153.013-4.306,0-6.455a1.1,1.1,0,0,1,.752-1.181Z" transform="translate(1784.647 1320)" fill="#de3b21"/>
      <path id="Path_114" data-name="Path 114" d="M-2060.7-1017.042c-.448-.078-.9-.145-1.343-.236a13.158,13.158,0,0,1-7.536-4.441,13.056,13.056,0,0,1-3.022-6.365c-.129-.73-.175-1.474-.263-2.251h.4c.7,0,1.392,0,2.088,0,.5,0,.45-.1.486.483a10.3,10.3,0,0,0,3.575,7.338,10.307,10.307,0,0,0,5.925,2.554c.007.111.019.215.02.319v2.273c0,.108.019.216.028.324Z" transform="translate(2072.9 1047.663)" fill="#424a52"/>
      <path id="Path_115" data-name="Path 115" d="M-1832.54-1016.619v-2.909a10.378,10.378,0,0,0,6.776-3.349,10.407,10.407,0,0,0,2.79-7.012h2.919c-.052.589-.072,1.173-.157,1.749a13.226,13.226,0,0,1-4.339,8.122,13.121,13.121,0,0,1-6.992,3.286c-.214.032-.425.075-.638.112Z" transform="translate(1846.953 1047.241)" fill="#424a52"/>
      <path id="Path_116" data-name="Path 116" d="M-1980.464-1166.015a4.051,4.051,0,0,0-.085-5.794,4.014,4.014,0,0,0-5.427-.066,4.057,4.057,0,0,0-.152,5.869,5.853,5.853,0,0,0-2.179,2.2,6.1,6.1,0,0,0-.74,3.02,8.445,8.445,0,0,1-2.62-8.267,8.506,8.506,0,0,1,8.174-6.672,8.538,8.538,0,0,1,8.352,5.889,8.571,8.571,0,0,1-2.4,9.064A5.856,5.856,0,0,0-1980.464-1166.015Z" transform="translate(1996.779 1184.356)" fill="#424a52"/>
      <path id="Path_117" data-name="Path 117" d="M-2069.81-1243.587a13.372,13.372,0,0,1,12.289-11.543v2.819c-.773.184-1.555.306-2.292.556a10.265,10.265,0,0,0-6.382,5.872c-.286.658-.433,1.382-.654,2.071-.027.086-.114.217-.175.218C-2067.946-1243.579-2068.869-1243.587-2069.81-1243.587Z" transform="translate(2070.032 1259.01)" fill="#424a52"/>
      <path id="Path_118" data-name="Path 118" d="M-1912.557-989.526a4.194,4.194,0,0,1,.7-2.777,3.828,3.828,0,0,1,4.154-1.5,3.834,3.834,0,0,1,2.815,3.469c.042.554.022,1.114.012,1.675a.326.326,0,0,1-.169.228,8.549,8.549,0,0,1-7.32.028.282.282,0,0,1-.2-.314C-1912.547-988.987-1912.557-989.256-1912.557-989.526Z" transform="translate(1922.195 1013.442)" fill="#424a52"/>
      <path id="Path_119" data-name="Path 119" d="M-1881.334-1092.534a2.12,2.12,0,0,1-2.106-2.114,2.141,2.141,0,0,1,2.106-2.123,2.149,2.149,0,0,1,2.123,2.138A2.126,2.126,0,0,1-1881.334-1092.534Z" transform="translate(1894.809 1110.122)" fill="#424a52"/>
    </g>
  </g>
</svg>
