<svg xmlns="http://www.w3.org/2000/svg" width="60" height="60" viewBox="0 0 60 60">
  <g id="Group_72" data-name="Group 72" transform="translate(-1340 -218)">
    <g id="Ellipse_12" data-name="Ellipse 12" transform="translate(1340 218)" fill="none" stroke="#424a52" stroke-width="2">
      <circle cx="30" cy="30" r="30" stroke="none"/>
      <circle cx="30" cy="30" r="29" fill="none"/>
    </g>
    <g id="innovations" transform="translate(1354.979 230.944)">
      <path id="Path_86" data-name="Path 86" d="M-1539.164-519.749a1.229,1.229,0,0,1,.738,1.352c-.027.332-.005.668-.005.981.676.235,1.336.431,1.966.694s1.238.6,1.908.924c.267-.279.55-.591.848-.89a.992.992,0,0,1,1.529,0q1.362,1.358,2.71,2.729a1.011,1.011,0,0,1,0,1.54c-.3.3-.606.587-.917.886a13.324,13.324,0,0,1,1.594,3.869h1.222a1.022,1.022,0,0,1,1.141,1.131v3.793a1.016,1.016,0,0,1-1.121,1.117h-1.151c-.391,1.032-.761,2.01-1.133,2.986-.032.083-.089.157-.118.24a1.368,1.368,0,0,1-1.533.948c-.891-.054-1.79-.013-2.761-.013a10.566,10.566,0,0,0,2.52-9.584,9.71,9.71,0,0,0-3.735-5.667,9.9,9.9,0,0,0-12.693.628,9.785,9.785,0,0,0-3.262,7.175,10.57,10.57,0,0,0,2.806,7.416c-.138.014-.219.03-.3.03h-2.8a1.079,1.079,0,0,1-1.024-.615,13.966,13.966,0,0,1-1.23-3.139c-.034-.127-.069-.255-.11-.409h-1.268a1.011,1.011,0,0,1-1.086-1.087q-.005-1.929,0-3.856a1.009,1.009,0,0,1,1.076-1.1c.4,0,.8,0,1.2-.006a.44.44,0,0,0,.089-.029,13.18,13.18,0,0,1,1.59-3.83c-.313-.3-.623-.59-.919-.891a1.009,1.009,0,0,1,0-1.539q1.35-1.371,2.711-2.729a.994.994,0,0,1,1.528,0c.3.3.583.611.819.859.959-.422,1.848-.821,2.744-1.2a4.226,4.226,0,0,1,.8-.236c.267-.054.408-.154.367-.459-.03-.22.013-.448-.01-.67a1.217,1.217,0,0,1,.737-1.352Z" transform="translate(1556.45 519.74)" fill="#de3b21"/>
      <path id="Path_87" data-name="Path 87" d="M-1471.112-424c-.926,0-1.84,0-2.755-.008-.062,0-.162-.108-.177-.179a9.668,9.668,0,0,0-1.957-3.794,8.137,8.137,0,0,1,4.519-13.106,7.976,7.976,0,0,1,9.493,6.986,8.352,8.352,0,0,1-1.846,6.219,9.455,9.455,0,0,0-1.877,3.692.292.292,0,0,1-.205.179c-.9.013-1.807.008-2.749.008.162-.839.318-1.646.475-2.453q.633-3.256,1.267-6.509a1.033,1.033,0,0,0-.142-.787,1.007,1.007,0,0,0-.659-.441,1,1,0,0,0-1.151.852q-.473,2.4-.936,4.8a.2.2,0,0,1-.1.137c-.051-.239-.106-.475-.153-.717q-.405-2.071-.806-4.142a1.017,1.017,0,0,0-1.187-.929,1.032,1.032,0,0,0-.759,1.31q.831,4.273,1.661,8.548C-1471.135-424.233-1471.128-424.132-1471.112-424Z" transform="translate(1484.9 448.194)" fill="#424a52"/>
      <path id="Path_88" data-name="Path 88" d="M-1424.866-226a11.224,11.224,0,0,1-.09,1.422,1.934,1.934,0,0,1-1.883,1.569q-2.08.025-4.16,0a1.994,1.994,0,0,1-1.943-1.931c-.012-.345,0-.691,0-1.06Z" transform="translate(1443.937 252.095)" fill="#424a52"/>
      <path id="Path_89" data-name="Path 89" d="M-1406.453-170a9.428,9.428,0,0,1-.01,1.276,2,2,0,0,1-2.131,1.721,2.022,2.022,0,0,1-1.866-2.011V-170Z" transform="translate(1423.466 201.118)" fill="#424a52"/>
    </g>
  </g>
</svg>
