<svg xmlns="http://www.w3.org/2000/svg" width="60" height="60" viewBox="0 0 60 60">
  <g id="Group_72" data-name="Group 72" transform="translate(-1340 -218)">
    <g id="Ellipse_12" data-name="Ellipse 12" transform="translate(1340 218)" fill="none" stroke="#424a52" stroke-width="2">
      <circle cx="30" cy="30" r="30" stroke="none"/>
      <circle cx="30" cy="30" r="29" fill="none"/>
    </g>
    <g id="effective" transform="translate(1355.019 232.347)">
      <path id="Path_122" data-name="Path 122" d="M-2812.661-1803.058v3.283c0,.547-.2.737-.751.75a7.631,7.631,0,0,0-7.53,7.005,7.566,7.566,0,0,0,6.479,7.908q.568.077,1.142.1c.439.026.658.228.659.656q.008,3.391,0,6.783a.575.575,0,0,1-.669.639c-.763-.037-1.525-.105-2.286-.165a.68.68,0,0,1-.659-.578c-.14-.56-.307-1.113-.44-1.674a.464.464,0,0,0-.337-.368c-.949-.365-1.885-.761-2.833-1.129a.574.574,0,0,0-.423.015c-.531.28-1.053.578-1.567.886a.722.722,0,0,1-.885-.035,16.257,16.257,0,0,1-3.364-3.277.661.661,0,0,1-.039-.831c.314-.5.608-1.018.921-1.521a.418.418,0,0,0,.022-.456q-.609-1.349-1.161-2.721a.493.493,0,0,0-.4-.356c-.565-.123-1.12-.289-1.682-.418a.72.72,0,0,1-.62-.661,15.825,15.825,0,0,1,0-4.6.7.7,0,0,1,.6-.639c.574-.135,1.142-.3,1.718-.428a.46.46,0,0,0,.372-.333c.374-.925.782-1.837,1.161-2.76a.535.535,0,0,0-.017-.412c-.286-.517-.594-1.026-.908-1.527a.668.668,0,0,1,.038-.861,16.324,16.324,0,0,1,3.336-3.255.743.743,0,0,1,.917-.038c.5.3,1.022.578,1.528.88a.448.448,0,0,0,.468.02c.923-.393,1.862-.752,2.786-1.143a.659.659,0,0,0,.344-.345c.175-.549.317-1.109.454-1.67a.7.7,0,0,1,.681-.6c.737-.057,1.474-.125,2.212-.161.508-.024.726.2.728.69C-2812.658-1805.294-2812.661-1804.176-2812.661-1803.058Z" transform="translate(2829.23 1807.17)" fill="#de3b21"/>
      <path id="Path_123" data-name="Path 123" d="M-2649.43-1790.277v-3.433a14.467,14.467,0,0,1,13,13.748,14.464,14.464,0,0,1-13,14.766v-3.45a11.247,11.247,0,0,0,7.68-4.929,10.355,10.355,0,0,0,1.759-6.53A11.1,11.1,0,0,0-2649.43-1790.277Z" transform="translate(2666.404 1795.107)" fill="#424a52"/>
      <path id="Path_124" data-name="Path 124" d="M-2694.558-1701.912a2.968,2.968,0,0,1-2.939-2.879,2.984,2.984,0,0,1,2.809-3.049,1.265,1.265,0,0,0,.576-.189c1.639-1.026,3.272-2.064,4.906-3.1.083-.053.167-.1.251-.156a.565.565,0,0,1,.746.061.581.581,0,0,1,.074.774c-.422.682-.842,1.363-1.271,2.04-.666,1.052-1.344,2.1-2,3.151a1.124,1.124,0,0,0-.164.51A2.978,2.978,0,0,1-2694.558-1701.912Z" transform="translate(2710.027 1720.588)" fill="#424a52"/>
    </g>
  </g>
</svg>
