<svg xmlns="http://www.w3.org/2000/svg" width="60" height="60" viewBox="0 0 60 60">
  <g id="Group_72" data-name="Group 72" transform="translate(-1340 -218)">
    <g id="Ellipse_12" data-name="Ellipse 12" transform="translate(1340 218)" fill="none" stroke="#424a52" stroke-width="2">
      <circle cx="30" cy="30" r="30" stroke="none"/>
      <circle cx="30" cy="30" r="29" fill="none"/>
    </g>
    <g id="coorporation" transform="translate(1354.992 231.402)">
      <path id="Path_100" data-name="Path 100" d="M-1987.119-1046.8c-.406-.706-.789-1.342-1.139-2a1.112,1.112,0,0,0-.731-.579,6.886,6.886,0,0,1-5.065-6.937,6.96,6.96,0,0,1,6.024-6.6,6.918,6.918,0,0,1,7.735,5.646,6.9,6.9,0,0,1-4.868,7.865,1.286,1.286,0,0,0-.869.676C-1986.359-1048.09-1986.727-1047.483-1987.119-1046.8Zm0-5.19h3.325c.517,0,.721-.2.721-.723v-6.648c0-.519-.2-.721-.722-.721h-6.648c-.52,0-.72.2-.721.722v6.648c0,.518.2.72.722.722,1.106,0,2.215,0,3.322,0Z" transform="translate(2002.127 1062.94)" fill="#de3b21"/>
      <path id="Path_101" data-name="Path 101" d="M-2003.781-859.16v6.889c-.071.006-.127.015-.185.015q-2.87,0-5.741-.008a.474.474,0,0,1-.355-.193,15.665,15.665,0,0,1-1.778-6.7Z" transform="translate(2018.208 878.759)" fill="#424a52"/>
      <path id="Path_102" data-name="Path 102" d="M-1916.06-852.391v-6.9h8.085c-.08.7-.13,1.389-.242,2.07a15.64,15.64,0,0,1-1.509,4.568c-.083.164-.152.29-.386.29-1.925-.015-3.851-.008-5.776-.009C-1915.939-852.373-1915.986-852.383-1916.06-852.391Z" transform="translate(1931.645 878.876)" fill="#424a52"/>
      <path id="Path_103" data-name="Path 103" d="M-1836.851-859.33h4.672c-.113.8-.187,1.59-.34,2.36a14.172,14.172,0,0,1-1.641,4.29.474.474,0,0,1-.483.278c-1.3-.013-2.595-.007-3.946-.007A17.3,17.3,0,0,0-1836.851-859.33Z" transform="translate(1861.633 878.912)" fill="#424a52"/>
      <path id="Path_104" data-name="Path 104" d="M-2065.473-852.291c-1.4,0-2.743,0-4.088-.008a.386.386,0,0,1-.269-.176,14.116,14.116,0,0,1-1.944-5.906c-.026-.263-.042-.527-.065-.82h4.634A17.344,17.344,0,0,0-2065.473-852.291Z" transform="translate(2072.436 878.795)" fill="#424a52"/>
      <path id="Path_105" data-name="Path 105" d="M-2075.043-972.122c-.139-.338-.261-.585-.344-.845a.971.971,0,0,0-.653-.655,2.881,2.881,0,0,1-1.88-2.977,2.9,2.9,0,0,1,2.342-2.554,2.884,2.884,0,0,1,3.282,1.92,2.82,2.82,0,0,1-1.515,3.5,1.618,1.618,0,0,0-1.025,1.133A4.909,4.909,0,0,1-2075.043-972.122Zm1.158-4.187a1.164,1.164,0,0,0-1.134-1.166,1.158,1.158,0,0,0-1.175,1.125,1.159,1.159,0,0,0,.327.834,1.159,1.159,0,0,0,.824.352A1.164,1.164,0,0,0-2073.884-976.308Z" transform="translate(2077.94 987.249)" fill="#de3b21"/>
      <path id="Path_106" data-name="Path 106" d="M-1823.467-972.175c-.143-.35-.266-.607-.353-.875a.953.953,0,0,0-.631-.629,2.769,2.769,0,0,1-1.885-2.428,2.736,2.736,0,0,1,1.352-2.728,2.882,2.882,0,0,1,4.054,1.062,2.844,2.844,0,0,1-1.323,3.987,1.565,1.565,0,0,0-.991,1.073C-1823.3-972.557-1823.371-972.411-1823.467-972.175Zm1.158-4.222a1.158,1.158,0,0,0-1.158-1.141,1.158,1.158,0,0,0-.827.35,1.159,1.159,0,0,0-.329.836,1.167,1.167,0,0,0,1.178,1.125,1.164,1.164,0,0,0,1.132-1.169Z" transform="translate(1850.579 987.313)" fill="#de3b21"/>
      <path id="Path_107" data-name="Path 107" d="M-1890.216-775.659a14.144,14.144,0,0,1-9.324,5.57c.168-.124.267-.193.368-.269a17.159,17.159,0,0,0,4.745-5.039c.066-.108.193-.249.3-.25C-1892.842-775.665-1891.556-775.659-1890.216-775.659Z" transform="translate(1916.699 803.3)" fill="#424a52"/>
      <path id="Path_108" data-name="Path 108" d="M-2032.013-770.1a14.123,14.123,0,0,1-9.3-5.573h1.239c.843,0,1.686-.008,2.528.008a.512.512,0,0,1,.376.176,17.275,17.275,0,0,0,4.988,5.248A2.131,2.131,0,0,1-2032.013-770.1Z" transform="translate(2044.853 803.309)" fill="#424a52"/>
      <path id="Path_109" data-name="Path 109" d="M-1916-775.48h5.428a15.8,15.8,0,0,1-5.428,5.171Z" transform="translate(1931.596 803.137)" fill="#424a52"/>
      <path id="Path_110" data-name="Path 110" d="M-1979.561-770.218a16.672,16.672,0,0,1-5.459-5.192h5.459Z" transform="translate(1993.972 803.074)" fill="#424a52"/>
      <path id="Path_111" data-name="Path 111" d="M-1950.768-1020.93v1.622a.588.588,0,0,0,.668.665q1.062.009,2.13,0a.588.588,0,0,0,.666-.668c.007-.529,0-1.062,0-1.615h1.133v5.734h-5.73v-5.738Z" transform="translate(1964.04 1024.97)" fill="#de3b21"/>
      <path id="Path_112" data-name="Path 112" d="M-1928-1021.11h1.105v1.125H-1928Z" transform="translate(1942.447 1025.132)" fill="#de3b21"/>
    </g>
  </g>
</svg>
