<svg xmlns="http://www.w3.org/2000/svg" width="60" height="60" viewBox="0 0 60 60">
  <g id="Group_72" data-name="Group 72" transform="translate(-1340 -218)">
    <g id="Ellipse_12" data-name="Ellipse 12" transform="translate(1340 218)" fill="none" stroke="#424a52" stroke-width="2">
      <circle cx="30" cy="30" r="30" stroke="none"/>
      <circle cx="30" cy="30" r="29" fill="none"/>
    </g>
    <g id="performance" transform="translate(1354.81 232.918)">
      <path id="Path_97" data-name="Path 97" d="M-1934.969-922.006a.358.358,0,0,0-.043.079,2.212,2.212,0,0,1-2.328,1.795h-10.175v2.5h.315c.717,0,1.434-.008,2.151,0a1.262,1.262,0,0,1,1.237.911,1.21,1.21,0,0,1-.521,1.385,1.44,1.44,0,0,1-.689.209q-5.023.02-10.047.007a1.254,1.254,0,0,1-.893-.359,1.253,1.253,0,0,1-.375-.886,1.264,1.264,0,0,1,1.281-1.266c.708-.015,1.417,0,2.121,0h.344v-2.5h-10.194a2.21,2.21,0,0,1-2.243-1.561,2.465,2.465,0,0,1-.1-.694q-.008-7.8,0-15.606a2.161,2.161,0,0,1,2.117-2.234c1.531-.044,3.064-.012,4.6-.012.015,0,.03.018.072.045a4.215,4.215,0,0,0-1.9,2.466h-2.343v15.065h25.091V-937.72h-1.686c.037-.1.061-.166.087-.232.281-.689.568-1.376.84-2.068.061-.157.124-.242.309-.231.323.02.65-.009.971.023a2.19,2.19,0,0,1,1.968,1.718,1.085,1.085,0,0,0,.054.133Z" transform="translate(1965.19 945.148)" fill="#424a52"/>
      <path id="Path_98" data-name="Path 98" d="M-1863.579-987.037c-.481.219-.667.186-1.012-.158l-4.283-4.28c-.36-.361-.395-.528-.182-1.027-.582-.141-1.159-.283-1.737-.422-.287-.07-.576-.127-.862-.2a.628.628,0,0,1-.293-1.115,8.045,8.045,0,0,1,3.993-2.044c.8-.176,1.634-.233,2.448-.36a.725.725,0,0,0,.395-.19,15.587,15.587,0,0,1,8.52-4.8,11.869,11.869,0,0,1,1.553-.165c.542-.032.779.223.763.761a12.565,12.565,0,0,1-1.184,4.782,16.149,16.149,0,0,1-3.814,5.313.609.609,0,0,0-.166.375,11.145,11.145,0,0,1-1.384,5.076,12.391,12.391,0,0,1-1,1.342.6.6,0,0,1-.657.229.656.656,0,0,1-.485-.54C-1863.169-985.316-1863.372-986.165-1863.579-987.037Z" transform="translate(1879.525 1001.84)" fill="#de3b21"/>
      <path id="Path_99" data-name="Path 99" d="M-1878.077-843.883a2.549,2.549,0,0,1-1.249,2.252,19.857,19.857,0,0,1-3.759,1.533c-.27.091-.542.179-.817.249a.611.611,0,0,1-.782-.772,22.447,22.447,0,0,1,1.733-4.5,2.527,2.527,0,0,1,2.69-1.287,2.611,2.611,0,0,1,2.1,1.987C-1878.114-844.233-1878.1-844.036-1878.077-843.883Z" transform="translate(1891.096 858.699)" fill="#de3b21"/>
    </g>
  </g>
</svg>
