<svg xmlns="http://www.w3.org/2000/svg" width="60" height="60" viewBox="0 0 60 60">
  <g id="Group_72" data-name="Group 72" transform="translate(-1340 -218)">
    <g id="Ellipse_12" data-name="Ellipse 12" transform="translate(1340 218)" fill="none" stroke="#424a52" stroke-width="2">
      <circle cx="30" cy="30" r="30" stroke="none"/>
      <circle cx="30" cy="30" r="29" fill="none"/>
    </g>
    <g id="teamwork" transform="translate(1355 228.242)">
      <path id="Path_90" data-name="Path 90" d="M-1661.146-572.816a5.077,5.077,0,0,0-5.846.037,5.363,5.363,0,0,0-4.632-2.6,5.359,5.359,0,0,0-4.657,2.606,5.055,5.055,0,0,0-5.852-.043l-4.506-5.564c.613-.165,1.181-.32,1.75-.471,2.531-.672,5.063-1.339,7.59-2.021a.791.791,0,0,0,.418-.312q2.509-3.9,5-7.807l.242-.376c.088.131.155.227.219.327q2.5,3.918,5,7.84a.739.739,0,0,0,.476.344q4.559,1.2,9.11,2.419c.047.012.094.026.2.056Z" transform="translate(1686.64 589.34)" fill="#de3b21"/>
      <path id="Path_91" data-name="Path 91" d="M-1568.95-272.8H-1583a1.977,1.977,0,0,1-.026-.234c0-1.43-.013-2.861,0-4.291a3.2,3.2,0,0,1,2.727-3.21,3.419,3.419,0,0,1,.558-.034c2.509,0,5.018-.007,7.526,0a3.213,3.213,0,0,1,3.231,2.633,3.2,3.2,0,0,1,.048.587q.005,2.162,0,4.323A1.123,1.123,0,0,1-1568.95-272.8Z" transform="translate(1590.983 304.338)" fill="#424a52"/>
      <path id="Path_92" data-name="Path 92" d="M-1535.19-386a3.6,3.6,0,0,1,2.553,1.067,3.6,3.6,0,0,1,1.042,2.563,3.626,3.626,0,0,1-3.621,3.584,3.627,3.627,0,0,1-3.595-3.642A3.6,3.6,0,0,1-1535.19-386Z" transform="translate(1550.204 401.647)" fill="#424a52"/>
      <path id="Path_93" data-name="Path 93" d="M-1666.966-263.113h-5.049c-.007-.092-.02-.18-.02-.268,0-1.222-.009-2.445,0-3.667a2.847,2.847,0,0,1,1.647-2.734,2.671,2.671,0,0,1,1.039-.271c.972-.037,1.948-.013,2.954-.013-.094.229-.187.441-.269.658a5.245,5.245,0,0,0-.306,1.92v4.009Z" transform="translate(1673.177 294.66)" fill="#424a52"/>
      <path id="Path_94" data-name="Path 94" d="M-1379.787-263.14h-5.034v-.379q0-2.19-.012-4.381a4.68,4.68,0,0,0-.467-1.948c-.034-.072-.058-.149-.09-.229,1.032,0,2.048-.051,3.058.012a2.739,2.739,0,0,1,2.531,2.58C-1379.75-266.048-1379.787-264.61-1379.787-263.14Z" transform="translate(1408.613 294.681)" fill="#424a52"/>
      <path id="Path_95" data-name="Path 95" d="M-1629.324-364.611a3.255,3.255,0,0,1,3.144,4.532.608.608,0,0,1-.346.288,5.121,5.121,0,0,0-2.432,1.428.552.552,0,0,1-.515.193,3.226,3.226,0,0,1-2.547-4.617A3.109,3.109,0,0,1-1629.324-364.611Z" transform="translate(1636.589 381.912)" fill="#424a52"/>
      <path id="Path_96" data-name="Path 96" d="M-1432.419-364.631a3.27,3.27,0,0,1,3.208,2.923,3.278,3.278,0,0,1-2.69,3.5.75.75,0,0,1-.768-.238,4.525,4.525,0,0,0-2.308-1.328.6.6,0,0,1-.46-.433A3.243,3.243,0,0,1-1432.419-364.631Z" transform="translate(1454.971 381.931)" fill="#424a52"/>
    </g>
  </g>
</svg>
