<svg xmlns="http://www.w3.org/2000/svg" width="18" height="9.825" viewBox="0 0 18 9.825">
  <path id="right-arrows" d="M798.584,449.495H784.348a.778.778,0,0,1-.872-.558.809.809,0,0,1,.744-1.069c.083,0,.166,0,.248,0h14.177c-.082-.085-.126-.133-.172-.18l-2.481-2.474a.819.819,0,1,1,1.068-1.243c.063.054.12.114.178.173q1.935,1.935,3.869,3.874a.831.831,0,0,1,.008,1.318q-1.991,1.991-3.975,3.985a.826.826,0,0,1-1.415-.372.792.792,0,0,1,.262-.794q1.234-1.23,2.464-2.463c.051-.051.106-.091.159-.136Z" transform="translate(-783.436 -443.766)" fill="#fff"/>
</svg>
