<svg xmlns="http://www.w3.org/2000/svg" width="60" height="60" viewBox="0 0 60 60">
  <g id="Group_2393" data-name="Group 2393" transform="translate(-1334 -218)">
    <g id="Group_72" data-name="Group 72" transform="translate(-6)">
      <g id="Ellipse_12" data-name="Ellipse 12" transform="translate(1340 218)" fill="none" stroke="#fff" stroke-width="2">
        <circle cx="30" cy="30" r="30" stroke="none"/>
        <circle cx="30" cy="30" r="29" fill="none"/>
      </g>
    </g>
    <g id="attention_1" transform="translate(1349 233)">
      <path id="Path_53" data-name="Path 53" d="M-51.044-619.588c-.071.335-.127.675-.217,1a6.029,6.029,0,0,1-6.172,4.441,6.064,6.064,0,0,1-5.6-5.089,6.036,6.036,0,0,1,5.194-6.907,1.423,1.423,0,0,0,.191-.051h1.15a1.444,1.444,0,0,0,.191.051,6.019,6.019,0,0,1,5.033,4.343c.1.347.153.706.23,1.059Zm-6.888-.64c0,.6-.008,1.2,0,1.8a.848.848,0,0,0,.253.606.848.848,0,0,0,.61.244.844.844,0,0,0,.851-.831c.011-1.167.017-2.333,0-3.5a.844.844,0,0,0-.42-.724.844.844,0,0,0-.837-.005,14.882,14.882,0,0,0-1.43.95.8.8,0,0,0-.278.93.781.781,0,0,0,.681.577A2.717,2.717,0,0,0-57.932-620.229Z" transform="translate(81.05 626.19)" fill="#de3b21"/>
      <path id="Path_54" data-name="Path 54" d="M73.646-446.931a1.443,1.443,0,0,1-.786.7c-.307.133-.6.294-.92.456V-452c.586.389,1.353.46,1.7,1.166Z" transform="translate(-43.641 465.712)" fill="#fff"/>
      <path id="Path_55" data-name="Path 55" d="M-242.68-505.586l1.787-.026a2.548,2.548,0,0,0,1.688,2.66c1.384.482,2.784.927,4.188,1.349a2.524,2.524,0,0,0,2.679-.869c-.065-.026-.127-.054-.191-.077L-236.8-504.1q-2.049-.748-4.1-1.5,0-4.233-.008-8.464v-.46l10.952-3.553a7.818,7.818,0,0,0,4.051,4.651,8.075,8.075,0,0,0,6.225.4v14.969c0,.1,0,.192,0,.287a.874.874,0,0,1-.891.787.865.865,0,0,1-.867-.808,7.121,7.121,0,0,1,0-.889c.016-.216-.079-.3-.272-.36q-2.766-.887-5.528-1.787c-1.024-.331-2.049-.657-3.073-1a.277.277,0,0,0-.382.122,4.441,4.441,0,0,1-5.079,1.683q-1.986-.632-3.959-1.3a4.24,4.24,0,0,1-2.943-4.279Z" transform="translate(246.238 526.984)" fill="#fff"/>
      <path id="Path_56" data-name="Path 56" d="M-285.5-458.923c-.889,0-1.778.006-2.667,0a.851.851,0,0,1-.9-.9q0-3.4,0-6.8a.826.826,0,0,1,.749-.9c.925-.026,1.851-.008,2.806-.008v8.609Z" transform="translate(289.07 480.059)" fill="#fff"/>
    </g>
  </g>
</svg>
