<svg xmlns="http://www.w3.org/2000/svg" width="29.972" height="31.034" viewBox="0 0 29.972 31.034">
  <g id="Group_2317" data-name="Group 2317" transform="translate(519.931 -169.089)">
    <path id="Path_2203" data-name="Path 2203" d="M-430.878,281.228H-447.99c0-.039,0-.078,0-.117q0-11.584,0-23.169c0-.085.01-.169.016-.253h17.1v.4Q-430.879,269.659-430.878,281.228Zm-14.285-9.986h11.442v-1.727h-11.442Zm0,3.121h11.442v-1.728h-11.442Zm11.446,1.409h-11.44v1.72h11.44Zm-2.879-10.752c-.057-.124-.1-.208-.135-.3-.292-.712-.581-1.426-.875-2.138-.107-.26-.162-.614-.36-.744s-.547-.043-.829-.045c-.366,0-.731,0-1.108,0a.817.817,0,0,0,.023.131q1.108,2.627,2.224,5.25a.343.343,0,0,0,.257.155c.458.016.918-.007,1.376.013a.341.341,0,0,0,.379-.261c.7-1.663,1.4-3.323,2.1-4.984.036-.085.063-.175.109-.3-.536,0-1.031.011-1.525-.005a.362.362,0,0,0-.408.27C-435.759,263.038-436.172,264.006-436.6,265.021Zm-3.262-2.252a4.96,4.96,0,0,0-.56-.509,3.394,3.394,0,0,0-3.556-.181,2.864,2.864,0,0,0-.471,4.675,3.421,3.421,0,0,0,2.989.6,2.642,2.642,0,0,0,1.578-1l-1.16-1.035c-.81.727-1.608.82-2.148.273a1.6,1.6,0,0,1-.023-2.019c.543-.585,1.315-.5,2.173.244Z" transform="translate(-66.164 -81.605)" fill="#fff" stroke="rgba(0,0,0,0)" stroke-width="1"/>
    <path id="Path_2204" data-name="Path 2204" d="M-519.4,170.947l1.778,25.261,1.713-.125V174.326h20.626v23.325l2.059.22,2.712-25.174-9.914-1.069-.15-2Z" transform="translate(0 0)" fill="#fff" stroke="rgba(0,0,0,0)" stroke-width="1"/>
    <path id="Path_2205" data-name="Path 2205" d="M-519.4,170.947l18.823-1.324.15,2,9.914,1.069-2.712,25.174-2.059-.22V174.326h-20.626v21.757l-1.713.125Z" transform="translate(0 0)" fill="#fff" stroke="rgba(0,0,0,0)" stroke-width="1"/>
  </g>
</svg>
