<svg xmlns="http://www.w3.org/2000/svg" width="60" height="60" viewBox="0 0 60 60">
  <g id="Group_2318" data-name="Group 2318" transform="translate(-1016 -874)">
    <g id="Group_72" data-name="Group 72" transform="translate(-324 656)">
      <circle id="Ellipse_12" data-name="Ellipse 12" cx="30" cy="30" r="30" transform="translate(1340 218)" fill="#de3b21"/>
    </g>
    <g id="Group_2388" data-name="Group 2388" transform="translate(1574.111 155.468)">
      <path id="Path_2209" data-name="Path 2209" d="M-547.355,753.269c.053-.2.1-.408.16-.607a4.4,4.4,0,0,1,3.631-3.233c.978-.174,1.251-.451,1.3-1.454a4.48,4.48,0,0,1,5.448-4.118,1.388,1.388,0,0,0,1.19-.1,1.259,1.259,0,0,0,.508-1.038,6.985,6.985,0,0,1,5.675-6.549,7.024,7.024,0,0,1,8.327,6.431c.054,1.083.6,1.5,1.66,1.264a4.479,4.479,0,0,1,5.491,4.143c.05.957.327,1.266,1.261,1.412a4.479,4.479,0,0,1,3.833,4.425,4.509,4.509,0,0,1-3.781,4.442,4.96,4.96,0,0,1-.787.051q-4.51.005-9.019,0c-.107,0-.215-.013-.391-.024.335-.43.631-.811.93-1.191q.615-.783,1.232-1.564a1.117,1.117,0,0,0,.19-1.259,1.145,1.145,0,0,0-1.133-.653c-.774,0-1.549,0-2.376,0v-.463q0-3.307,0-6.614c0-1.006-.41-1.417-1.41-1.417q-2.969,0-5.938,0a1.179,1.179,0,0,0-1.334,1.342q0,3.326,0,6.652v.5h-2.411a1.125,1.125,0,0,0-1.1.651,1.12,1.12,0,0,0,.189,1.259q.979,1.237,1.952,2.48c.053.068.1.139.2.269-.162.013-.275.03-.388.03-2.856,0-5.712.011-8.568,0a4.474,4.474,0,0,1-4.476-3.691c-.017-.084-.047-.165-.072-.248Z" fill="#fff"/>
      <path id="Path_2210" data-name="Path 2210" d="M-400.571,849.426h4.172v.447q0,3.325,0,6.649c0,.991.4,1.387,1.385,1.388h1.039c-.141.185-.235.311-.332.435q-1.637,2.081-3.275,4.161a1.021,1.021,0,0,1-1.781.025c-1.195-1.512-2.384-3.028-3.637-4.621h1.054c.97,0,1.375-.4,1.375-1.358q0-3.343,0-6.687Z" transform="translate(-129.858 -102.007)" fill="#fff"/>
    </g>
  </g>
</svg>
