<svg xmlns="http://www.w3.org/2000/svg" width="162.419" height="60.001" viewBox="0 0 162.419 60.001"><g transform="translate(-10 -3)"><g transform="translate(10 3)"><g transform="translate(0)"><path d="M1533.339,917.6l-8-4.62a1.674,1.674,0,0,1-.738.432v9.253a1.67,1.67,0,0,1,.738.432l8-4.62a1.683,1.683,0,0,1,0-.877Z" transform="translate(-1524.6 -912.98)" fill="#de3b21"/><path d="M1584.8,1198.551v-9.238a1.675,1.675,0,0,1-.743-.423l-8.013,4.627a1.662,1.662,0,0,1,0,.854l8,4.62a1.689,1.689,0,0,1,.76-.439Z" transform="translate(-1574.876 -1182.647)" fill="#de3b21"/><path d="M1533.339,1468.759l-8-4.62a1.675,1.675,0,0,1-.738.432v9.253a1.668,1.668,0,0,1,.738.431l8-4.619a1.685,1.685,0,0,1,0-.877Z" transform="translate(-1524.6 -1451.668)" fill="#de3b21"/><path d="M1533.339,2019.92l-8-4.62a1.671,1.671,0,0,1-.738.432v9.253a1.667,1.667,0,0,1,.738.431l8-4.619a1.683,1.683,0,0,1,0-.877Z" transform="translate(-1524.6 -1990.356)" fill="#de3b21"/><path d="M1533.339,2571.09l-8-4.62a1.662,1.662,0,0,1-.738.432v9.252a1.676,1.676,0,0,1,.738.432l8-4.619a1.682,1.682,0,0,1,0-.876Z" transform="translate(-1524.6 -2529.055)" fill="#de3b21"/><path d="M1584.8,1750.111v-9.238a1.677,1.677,0,0,1-.743-.423l-8.013,4.626a1.665,1.665,0,0,1,0,.855l8,4.619a1.695,1.695,0,0,1,.76-.438Z" transform="translate(-1574.876 -1721.726)" fill="#de3b21"/><path d="M1584.8,2301.662v-9.239a1.675,1.675,0,0,1-.743-.423l-8.013,4.627a1.662,1.662,0,0,1,0,.854l8,4.619a1.7,1.7,0,0,1,.76-.438Z" transform="translate(-1574.876 -2260.795)" fill="#de3b21"/><path d="M1584.8,2853.222v-9.238a1.68,1.68,0,0,1-.743-.423l-8.013,4.626a1.664,1.664,0,0,1,0,.854l8,4.619a1.692,1.692,0,0,1,.76-.438Z" transform="translate(-1574.876 -2799.875)" fill="#de3b21"/><path d="M2010.509,2846.61l-8-4.619a1.677,1.677,0,0,1-.738.431v9.253a1.672,1.672,0,0,1,.738.431l8-4.619a1.67,1.67,0,0,1-.058-.439A1.651,1.651,0,0,1,2010.509,2846.61Z" transform="translate(-1990.973 -2798.34)" fill="#de3b21"/><path d="M2061.77,3127.842V3118.6a1.675,1.675,0,0,1-.744-.423l-8.012,4.626a1.672,1.672,0,0,1,0,.854l8,4.619a1.692,1.692,0,0,1,.351-.27A1.659,1.659,0,0,1,2061.77,3127.842Z" transform="translate(-2041.053 -3068.28)" fill="#de3b21"/><path d="M2010.538,1744.27l-8-4.62a1.669,1.669,0,0,1-.738.432v9.253a1.666,1.666,0,0,1,.738.432l8-4.619a1.69,1.69,0,0,1,0-.877Z" transform="translate(-1991.002 -1720.944)" fill="#de3b21"/><path d="M2062.2,1473.781v-9.239a1.671,1.671,0,0,1-.743-.423l-8.013,4.626a1.672,1.672,0,0,1,0,.854l8,4.619a1.673,1.673,0,0,1,.35-.27A1.7,1.7,0,0,1,2062.2,1473.781Z" transform="translate(-2041.473 -1451.648)" fill="#de3b21"/></g><g transform="translate(21.595 12.472)"><path d="M2487.678,3122.129l-8-4.62a1.674,1.674,0,0,1-.737.432v9.253a1.668,1.668,0,0,1,.737.431l8-4.619a1.713,1.713,0,0,1-.058-.439A1.677,1.677,0,0,1,2487.678,3122.129Z" transform="translate(-2478.94 -3080.097)" fill="#424a52"/><path d="M2538.981,2852.321v-9.239a1.681,1.681,0,0,1-.743-.422l-8.013,4.626a1.67,1.67,0,0,1,0,.854l8,4.619a1.645,1.645,0,0,1,.351-.269A1.68,1.68,0,0,1,2538.981,2852.321Z" transform="translate(-2529.06 -2811.467)" fill="#424a52"/><path d="M3016.191,2576.8v-9.239a1.67,1.67,0,0,1-.742-.423l-8.014,4.627a1.656,1.656,0,0,1,0,.854l8,4.62a1.68,1.68,0,0,1,.759-.439Z" transform="translate(-2995.471 -2542.182)" fill="#424a52"/><path d="M2964.948,2846.48l-8-4.62a1.672,1.672,0,0,1-.738.432v9.252a1.674,1.674,0,0,1,.738.432l8-4.619a1.682,1.682,0,0,1-.058-.438A1.664,1.664,0,0,1,2964.948,2846.48Z" transform="translate(-2945.409 -2810.685)" fill="#424a52"/><path d="M2964.948,2295.32l-8-4.62a1.665,1.665,0,0,1-.738.432v9.253a1.663,1.663,0,0,1,.738.431l8-4.619a1.7,1.7,0,0,1,0-.877Z" transform="translate(-2945.409 -2271.997)" fill="#424a52"/><path d="M2964.958,1744.16l-8-4.62a1.67,1.67,0,0,1-.738.431v9.253a1.666,1.666,0,0,1,.738.432l8-4.62a1.7,1.7,0,0,1-.058-.439A1.672,1.672,0,0,1,2964.958,1744.16Z" transform="translate(-2945.419 -1733.308)" fill="#424a52"/><path d="M3016.171,2025.651v-9.239a1.674,1.674,0,0,1-.743-.423l-8.013,4.626a1.66,1.66,0,0,1-.005.855l8,4.619a1.7,1.7,0,0,1,.351-.269A1.682,1.682,0,0,1,3016.171,2025.651Z" transform="translate(-2995.452 -2003.503)" fill="#424a52"/><path d="M2487.979,1468.759l-8-4.62a1.672,1.672,0,0,1-.737.432v9.253a1.664,1.664,0,0,1,.737.431l8-4.619a1.667,1.667,0,0,1-.059-.439A1.65,1.65,0,0,1,2487.979,1468.759Z" transform="translate(-2479.233 -1464.14)" fill="#424a52"/><path d="M2538.981,1749.972v-9.239a1.673,1.673,0,0,1-.743-.423l-8.013,4.626a1.675,1.675,0,0,1,0,.855l8,4.619a1.683,1.683,0,0,1,.759-.438Z" transform="translate(-2529.06 -1734.061)" fill="#424a52"/></g><path d="M3849.951,1928.5h5.367a.664.664,0,0,1-.035-.216v-.548a8.8,8.8,0,0,0-.415-2.824q-.632-1.827-1.991-1.827-1.671,0-2.4,2.027A9.767,9.767,0,0,0,3849.951,1928.5Zm9.974,1.594h-9.974l.139,1.894a3.962,3.962,0,0,0,.519,1.745,4.845,4.845,0,0,0,1.16,1.545,4.035,4.035,0,0,0,1.385.764,5.625,5.625,0,0,0,1.68.233,5.85,5.85,0,0,0,2.112-.4,7.618,7.618,0,0,0,1.939-1.1l.416.3-.762,1.86a8.658,8.658,0,0,1-4.952,1.5,11.776,11.776,0,0,1-3.774-.531,7.12,7.12,0,0,1-2.909-1.993,6.5,6.5,0,0,1-1.558-2.741,12.625,12.625,0,0,1-.45-3.471,8.074,8.074,0,0,1,2.13-5.8,7.614,7.614,0,0,1,5.8-2.242q3.809,0,5.575,2.425A10.1,10.1,0,0,1,3859.925,1930.1Zm61.605-4.086h-.242l-.45-1.993a8.531,8.531,0,0,1,2.926-1.644,10.742,10.742,0,0,1,3.48-.581,8.468,8.468,0,0,1,4.242.963,3.8,3.8,0,0,1,2.094,3.489v2.226l-.1,4.85.1,1.894a1.8,1.8,0,0,0,.237.815,1.144,1.144,0,0,0,.566.581c.086.022.2.044.335.067a2.212,2.212,0,0,0,.369.033h.364c.046.022.069.183.069.482v.349a5.188,5.188,0,0,1-.866.4c-.346.122-.611.221-.8.294-.23.044-.479.088-.744.138a4.37,4.37,0,0,1-.71.067,3.516,3.516,0,0,1-2.112-.648,3.7,3.7,0,0,1-1.316-1.777,4.761,4.761,0,0,1-1.853,1.767,5.28,5.28,0,0,1-2.58.659,5.445,5.445,0,0,1-3.584-1.13,3.965,3.965,0,0,1-1.367-3.234,4.3,4.3,0,0,1,.542-2.115,3.835,3.835,0,0,1,1.519-1.529,9.875,9.875,0,0,1,2.123-.885l2.2-.532c.537-.133.965-.243,1.293-.332a5.509,5.509,0,0,0,1.253-.532,1.059,1.059,0,0,0,.369-.521,2.61,2.61,0,0,0,.086-.747,2.465,2.465,0,0,0-.987-1.949,3.416,3.416,0,0,0-2.233-.814,5.428,5.428,0,0,0-2.008.382,6.571,6.571,0,0,0-1.836,1.113Zm4.017,4.889a2.71,2.71,0,0,0-.865,1.152,4.593,4.593,0,0,0-.243,1.589,3.415,3.415,0,0,0,.438,1.816,1.609,1.609,0,0,0,1.5.72,2.236,2.236,0,0,0,2.112-1.1,4.9,4.9,0,0,0,.49-2.4v-3.206l-1.385.564c-.462.183-.808.3-1.039.371A3.73,3.73,0,0,0,3925.547,1930.9Zm-16.518-7.015q-1.939,0-2.77,2.359a12.166,12.166,0,0,0-.554,3.953,12.618,12.618,0,0,0,.45,3.754q.761,2.359,2.6,2.359,1.973,0,2.8-2.459a12.4,12.4,0,0,0,.554-4.02,11.7,11.7,0,0,0-.484-3.688Q3910.864,1923.883,3909.029,1923.883Zm2.7-10.931.485.039,2.112.127q.416,0,1.282-.067t1.316-.066l-.208,3.223q0,1.064-.069,3.472t-.07,2.575v9.8q0,.964.07,2.957t.069,2.99l-.485-.033c-.3-.044-.589-.077-.865-.1s-.611-.033-1-.033q-.519,0-1.385.083t-1,.083a10.445,10.445,0,0,1,.155-1.545,10.8,10.8,0,0,0,.156-1.246,5.341,5.341,0,0,1-1.906,2.375,5.163,5.163,0,0,1-2.977.848,6.045,6.045,0,0,1-5.333-2.558,10.019,10.019,0,0,1-1.489-5.781,12.7,12.7,0,0,1,.329-3.09,8.071,8.071,0,0,1,1.3-2.658,6.368,6.368,0,0,1,2.234-1.91,5.939,5.939,0,0,1,2.822-.747,6.332,6.332,0,0,1,2.771.581,4.431,4.431,0,0,1,1.939,1.843v-6.462c0-.714-.018-1.29-.047-1.733C3911.795,1914.121,3911.731,1913.13,3911.731,1912.953Zm-29.643,9.8v-.664c.277,0,.751.022,1.425.067s1.051.067,1.12.067c.618,0,1.074-.012,1.374-.034a5.677,5.677,0,0,1,.86-.1l-.1,2.458a8.309,8.309,0,0,1,2.314-2.016,5.72,5.72,0,0,1,2.931-.808,5.791,5.791,0,0,1,4.317,1.86,4.409,4.409,0,0,1,1.034,2.293,20.1,20.1,0,0,1,.1,2.558V1938c-.392,0-.911-.028-1.564-.083s-1.049-.083-1.188-.083c-.341,0-.791.028-1.34.083s-.883.083-1,.083l.138-1.727q0-.831.087-2.21c.057-.919.086-1.467.086-1.645v-2.491a13.742,13.742,0,0,0-.278-3.422,2.451,2.451,0,0,0-2.545-1.96,2.619,2.619,0,0,0-2.684,2.193,15.475,15.475,0,0,0-.312,3.787q0,1.728.086,4.4t.086,3.073c-.345,0-.819-.028-1.419-.083s-.958-.083-1.073-.083q-.52,0-1.42.083c-.6.055-.958.083-1.073.083l.034-1.727.173-4.153v-5.116q0-.9-.086-2.425T3882.088,1922.753Zm-9.28,15.25.1-2.352.138-3.422.1-5.418q0-.962-.121-2.922t-.122-2.959l.312.036,2.51.107c.26,0,.664-.018,1.223-.054s.976-.053,1.253-.053l-.243,4.586q0,1.176-.069,3.932c-.047,1.836-.069,2.828-.069,2.971,0,1.235.01,2.215.034,2.952a24.794,24.794,0,0,0,.243,2.6q-.589,0-1.611-.089t-1.229-.089q-.52,0-1.4.089T3872.808,1938Zm-4.676-14.646v5.482q.243,8.539.243,9.175c-.358-.006-.849-.033-1.466-.089s-.981-.088-1.1-.088c-.358,0-.849.028-1.466.088s-.981.083-1.1.089q0-1.363.052-4.053t.052-3.688V1918.49l-.1-3.854a5.2,5.2,0,0,0-.1-.831,5.237,5.237,0,0,1-.1-.864,14.812,14.812,0,0,0,1.541.116c.612.016.964.028,1.056.028q.658,0,1.333-.034a13.321,13.321,0,0,0,1.333-.132l-.174,1.4v9.042Zm-37.71,12.752h1.72a4.429,4.429,0,0,0,1.782-.349,3.1,3.1,0,0,0,1.334-1.113,5.044,5.044,0,0,0,.946-2.923,4.838,4.838,0,0,0-1.16-3.572,4.712,4.712,0,0,0-3.446-1.146h-1.143l-.035,4.856Zm0-10.964h.56a11.538,11.538,0,0,0,1.946-.133,3.373,3.373,0,0,0,1.511-.731,3.607,3.607,0,0,0,1.12-1.495,4.973,4.973,0,0,0,.369-1.927,5.308,5.308,0,0,0-.295-1.611,2.57,2.57,0,0,0-.784-1.28,4.191,4.191,0,0,0-2.649-.9h-.681a6.287,6.287,0,0,0-.958.133q0,.764-.069,2.558t-.069,1.927Zm4.987.564v.3a6.962,6.962,0,0,1,2.268.4,7.116,7.116,0,0,1,2.061,1.1,4.992,4.992,0,0,1,1.9,3.987,6.263,6.263,0,0,1-1.835,4.452,5.789,5.789,0,0,1-1.939,1.262,11.467,11.467,0,0,1-2.286.631c-.254.044-.595.083-1.021.116s-.861.05-1.3.05l-5.091-.1-3.012.1q.138-.93.208-2.193t.069-2.392q0-1.594.069-5.249t.07-3.887q0-1.461-.139-4.485t-.139-4.551l3.913.1h4.987a8.984,8.984,0,0,1,4.744,1.091,4.374,4.374,0,0,1,2.147,3.992,4.58,4.58,0,0,1-1.731,3.666A7.512,7.512,0,0,1,3835.409,1925.71Z" transform="translate(-3773.102 -1890.293)" fill="#424a52" fill-rule="evenodd"/><path d="M5920.624,1922.216v-6.078a1.09,1.09,0,0,1-.488-.278l-5.273,3.043a1.087,1.087,0,0,1,0,.562l5.263,3.039a1.094,1.094,0,0,1,.5-.288Z" transform="translate(-5815.516 -1893.167)" fill="#de3b21"/><path d="M3825.169,3247.462h.493v-2.314h2.582v2.314h.493v-4.936h-.493v2.173h-2.582v-2.173h-.493Zm5.38,0h2.707v-.447h-2.214V3245.2h2.141v-.448h-2.141v-1.78h2.214v-.447h-2.707Zm3.979,0h.533l.713-1.655h2.294l.715,1.655h.533l-2.115-4.936h-.547Zm1.44-2.1.961-2.261.947,2.261Zm4.739,2.1h2.534v-.447h-2.04v-4.489h-.493Zm4.345,0h.493v-4.488h1.127v-.447h-2.748v.447h1.127Zm2.984,0h.494v-2.314h2.582v2.314h.493v-4.936h-.493v2.173h-2.582v-2.173h-.494Zm7.677,0h.494v-4.936h-.494Zm1.971-1.38a1.457,1.457,0,0,0,1.526,1.467,1.43,1.43,0,0,0,1.5-1.44c0-1.068-.881-1.308-1.408-1.454-.613-.173-.974-.327-.974-.867a.824.824,0,0,1,.847-.9.863.863,0,0,1,.921.887h.493a1.3,1.3,0,0,0-1.354-1.334,1.326,1.326,0,0,0-1.4,1.341c0,1.135,1.086,1.181,1.72,1.427a.919.919,0,0,1,.66.894.971.971,0,0,1-1.021,1,.991.991,0,0,1-1.02-1.02Zm20.579,1.38h2.708v-.447h-2.214V3245.2h2.141v-.448h-2.141v-1.78h2.214v-.447h-2.708Zm5.079,0h.494v-4.488h1.127v-.447h-2.748v.447h1.127Zm2.985,0h2.708v-.447h-2.214V3245.2h2.141v-.448h-2.141v-1.78h2.214v-.447h-2.708Zm4.4,0h.493v-4.488h.887c1.168,0,1.467.593,1.467,1.12,0,1.12-1.187,1.133-1.467,1.133h-.394l1.674,2.235H3894l-1.388-1.841a1.465,1.465,0,0,0,1.454-1.481c0-.406-.107-1.614-1.961-1.614h-1.38Zm4.872,0h.493v-4.335l2.961,4.335h.494v-4.936h-.494v4.095l-2.788-4.095h-.667Zm5.339,0h.533l.714-1.655h2.294l.714,1.655h.533l-2.114-4.936h-.547Zm1.44-2.1.961-2.261.947,2.261Zm4.74,2.1h2.534v-.447h-2.041v-4.489h-.494Zm7.8,0h.467l2.048-4.936h-.54l-1.741,4.322-1.728-4.322h-.541Zm2.63,0h.534l.714-1.655h2.295l.713,1.655h.533l-2.114-4.936h-.547Zm1.441-2.1.96-2.261.947,2.261Zm4.739,2.1h2.534v-.447h-2.042v-4.489h-.493Zm3.905-4.936v3c0,1.441.706,2.021,1.693,2.021s1.695-.58,1.695-2.021v-3h-.493v3c0,.34-.007,1.574-1.2,1.574s-1.2-1.234-1.2-1.574v-3Zm5.192,4.936h2.708v-.447h-2.215V3245.2h2.142v-.448h-2.142v-1.78h2.215v-.447h-2.708Zm-68.781,0h.534l.714-1.655h2.293l.714,1.655h.534l-2.114-4.936h-.547Zm1.44-2.1.961-2.261.947,2.261Zm4.74,2.1h.493v-4.335l2.962,4.335h.494v-4.936h-.494v4.095l-2.788-4.095h-.667Z" transform="translate(-3773.111 -3189.728)" fill="#424a52" fill-rule="evenodd"/></g></g></svg>