<svg xmlns="http://www.w3.org/2000/svg" width="18" height="18.109" viewBox="0 0 18 18.109">
  <path id="medicine" d="M-416.768,153.319c-.183-.1-.358-.221-.378-.448-.017-.2,0-.4,0-.613-.187,0-.35,0-.513,0a1.592,1.592,0,0,1-1.584-1.335,1.584,1.584,0,0,1,1.583-1.846c.163,0,.326,0,.5,0v-1.061h-.185c-.546-.009-1.1.009-1.639-.035a1.542,1.542,0,0,1-1.309-1.238,1.6,1.6,0,0,1,.74-1.684,1.757,1.757,0,0,1,.893-.229h1.495v-1.053h-1.544a4.251,4.251,0,0,0,.3-.631,5.138,5.138,0,0,0,.191-.945.509.509,0,0,0-.5-.552.519.519,0,0,0-.381.136.518.518,0,0,0-.167.369,2.141,2.141,0,0,1-.846,1.566.206.206,0,0,1-.125.046c-.354,0-.7,0-1.088,0a1.266,1.266,0,0,1,.1-.1,6.057,6.057,0,0,0,1.636-2.313.532.532,0,0,0-.252-.719.527.527,0,0,0-.707.279,5.951,5.951,0,0,1-.966,1.551,3.767,3.767,0,0,1-2.383,1.287,8.088,8.088,0,0,1-1.234.008.512.512,0,0,1-.477-.426.529.529,0,0,1,.294-.569c.213-.112.438-.2.649-.317a4.974,4.974,0,0,0,1.838-1.79c.309-.5.6-1.017.935-1.5a1.815,1.815,0,0,1,2.211-.575,8.064,8.064,0,0,1,1.889,1.189c.207.153.408.315.633.489.006-.055.012-.088.012-.119v-1.715a.172.172,0,0,0-.111-.188,1.557,1.557,0,0,1-.931-1.627,1.565,1.565,0,0,1,1.347-1.384.2.2,0,0,0,.047-.023h.354a1.953,1.953,0,0,1,.84.376,1.578,1.578,0,0,1-.332,2.635.23.23,0,0,0-.16.248c.009.588,0,1.177,0,1.8.076-.055.133-.093.185-.133a12.779,12.779,0,0,1,1.951-1.3,2.834,2.834,0,0,1,1.309-.374,1.669,1.669,0,0,1,1.419.852c.265.4.5.81.744,1.221a5.04,5.04,0,0,0,2.448,2.176c.433.181.552.608.252.894a.539.539,0,0,1-.325.151,5.945,5.945,0,0,1-1.718-.095,3.894,3.894,0,0,1-2.146-1.515,11.608,11.608,0,0,1-.7-1.22.557.557,0,0,0-.6-.331.525.525,0,0,0-.377.739,6.045,6.045,0,0,0,1.629,2.318c.031.026.059.055.121.114-.32,0-.6-.013-.887,0a.6.6,0,0,1-.508-.206,2.081,2.081,0,0,1-.676-1.415.519.519,0,0,0-.167-.369.519.519,0,0,0-.381-.137.53.53,0,0,0-.5.552,2.716,2.716,0,0,0,.354,1.3c.044.081.094.16.156.265h-1.56v1.069h1.038c.13,0,.259-.008.388,0A.576.576,0,0,0-414,144.4l.864.676a1.546,1.546,0,0,1-1.345.815c-.47.015-.941,0-1.412,0h-.2v1.047c.254.014.511.015.765.044a1.579,1.579,0,0,1,1.309,1.242,1.605,1.605,0,0,1-.741,1.683,1.747,1.747,0,0,1-.858.229c-.153,0-.305,0-.471,0V151.2c.161,0,.324,0,.486,0a.534.534,0,0,1,.558.536.533.533,0,0,1-.552.524c-.163,0-.326,0-.5,0-.017.406.1.853-.391,1.061Zm-.395-7.425c-.55,0-1.084-.008-1.617,0a.517.517,0,0,0-.493.523.526.526,0,0,0,.508.531c.221.01.446,0,.669,0h.934Zm1.072,3.178c.2,0,.382.009.562,0a.525.525,0,0,0,.486-.492.511.511,0,0,0-.421-.547,4.805,4.805,0,0,0-.629-.005Zm-1.078,2.122v-1.057c-.188,0-.364-.008-.539,0a.527.527,0,0,0-.505.531.526.526,0,0,0,.493.524c.18.013.361,0,.552,0Z" transform="translate(425.627 -135.21)" fill="#fff"/>
</svg>
