<svg xmlns="http://www.w3.org/2000/svg" width="60" height="60" viewBox="0 0 60 60">
  <g id="Group_2396" data-name="Group 2396" transform="translate(-1334 -218)">
    <g id="Group_72" data-name="Group 72" transform="translate(-6)">
      <g id="Ellipse_12" data-name="Ellipse 12" transform="translate(1340 218)" fill="none" stroke="#424a52" stroke-width="2">
        <circle cx="30" cy="30" r="30" stroke="none"/>
        <circle cx="30" cy="30" r="29" fill="none"/>
      </g>
    </g>
    <g id="goals" transform="translate(1349 232.981)">
      <path id="Path_64" data-name="Path 64" d="M-358.044,362.507v10.28c0,.841-.308,1.149-1.148,1.149H-363.1c-.783,0-1.111-.321-1.111-1.093V352.1c0-.758.329-1.085,1.086-1.086h4c.752,0,1.08.332,1.08,1.092Q-358.043,357.3-358.044,362.507Z" transform="translate(388.043 -343.917)" fill="#424a52"/>
      <path id="Path_65" data-name="Path 65" d="M-861.31,217.282a2.639,2.639,0,0,1,3.933-2.417.321.321,0,0,0,.415-.016q1.51-1.08,3.036-2.143a.292.292,0,0,0,.141-.356,2.617,2.617,0,0,1,1.537-2.907,2.592,2.592,0,0,1,3.125.843.353.353,0,0,0,.415.158q1.493-.324,2.991-.63a.354.354,0,0,0,.314-.313,2.584,2.584,0,0,1,3.581-1.8.327.327,0,0,0,.412-.062c1.28-1.147,2.568-2.284,3.843-3.436a.428.428,0,0,0,.094-.366,2.62,2.62,0,0,1,2.726-3.382,2.475,2.475,0,0,1,2.241,1.682,2.465,2.465,0,0,1-.623,2.81,2.467,2.467,0,0,1-2.824.54.408.408,0,0,0-.51.092q-1.867,1.681-3.755,3.342a.366.366,0,0,0-.131.45,2.6,2.6,0,0,1-1.391,3.109,2.589,2.589,0,0,1-3.192-.777.393.393,0,0,0-.465-.176q-1.463.318-2.93.617a.393.393,0,0,0-.353.35,2.6,2.6,0,0,1-3.8,1.662.382.382,0,0,0-.491.015c-.979.707-1.967,1.4-2.957,2.091a.353.353,0,0,0-.185.405,2.482,2.482,0,0,1-1.043,2.6,2.457,2.457,0,0,1-2.657.239A2.507,2.507,0,0,1-861.31,217.282Z" transform="translate(861.813 -200.43)" fill="#de3b21"/>
      <path id="Path_66" data-name="Path 66" d="M-533.771,508.878v-6.841c0-.773.3-1.077,1.076-1.078h4.03c.726,0,1.039.318,1.039,1.051v13.776c0,.736-.326,1.055-1.075,1.056h-4c-.745,0-1.07-.323-1.07-1.061Q-533.772,512.328-533.771,508.878Z" transform="translate(549.646 -486.824)" fill="#424a52"/>
      <path id="Path_67" data-name="Path 67" d="M-696.294,545.44v5.938c0,.816-.315,1.127-1.14,1.127h-3.938c-.758,0-1.087-.329-1.087-1.085V539.451c0-.746.322-1.07,1.061-1.071h3.97c.832,0,1.134.3,1.135,1.123Q-696.293,542.472-696.294,545.44Z" transform="translate(710.418 -522.487)" fill="#424a52"/>
      <path id="Path_68" data-name="Path 68" d="M-872.01,654.862v-3.373a.9.9,0,0,1,1.039-1.027q2.031,0,4.061,0c.719,0,1.044.329,1.044,1.055v6.746c0,.737-.326,1.058-1.071,1.059h-4c-.759,0-1.074-.32-1.075-1.086Q-872.01,656.548-872.01,654.862Z" transform="translate(872.01 -629.302)" fill="#424a52"/>
    </g>
  </g>
</svg>
