<svg xmlns="http://www.w3.org/2000/svg" width="60" height="60" viewBox="0 0 60 60">
  <g id="Group_2398" data-name="Group 2398" transform="translate(-1334 -218)">
    <g id="Group_72" data-name="Group 72" transform="translate(-6)">
      <g id="Ellipse_12" data-name="Ellipse 12" transform="translate(1340 218)" fill="none" stroke="#424a52" stroke-width="2">
        <circle cx="30" cy="30" r="30" stroke="none"/>
        <circle cx="30" cy="30" r="29" fill="none"/>
      </g>
    </g>
    <g id="vision" transform="translate(1348.986 233)">
      <path id="Path_69" data-name="Path 69" d="M-1032.458-426.217v-1.723h-1.722v1.723Zm-14.032,1.755h1.725v-1.719h-1.725Zm24.616,0h1.722v-1.722h-1.722Zm-22.884,23.018h-1.724v1.72h1.724Zm22.891-.011v1.732h1.716v-1.732Z" transform="translate(1048.331 427.94)" fill="#424a52"/>
      <path id="Path_70" data-name="Path 70" d="M-1077.68-384.847a2.148,2.148,0,0,0,.2-.2,31.038,31.038,0,0,1,4.838-5.2,20.755,20.755,0,0,1,3.58-2.484.392.392,0,0,0,.247-.4c-.012-1.033-.005-2.066-.005-3.121h-3.5v-1.747h5.249v4.258l3.518-.8v-1.7h1.762v1.7l3.515.8v-4.252H-1053v1.726h-3.482c-.009.1-.021.16-.021.225q0,1.48,0,2.959a.314.314,0,0,0,.176.327,25.83,25.83,0,0,1,7.423,6.375c.4.481.772.983,1.156,1.475.029.038.059.079.1.143-.317.414-.626.838-.956,1.247a28.3,28.3,0,0,1-5.218,5.114c-.785.577-1.629,1.073-2.456,1.591a.392.392,0,0,0-.227.386c.01,1.034.005,2.068.005,3.135h3.5v1.74h-5.251v-4.257l-3.517.8v1.694h-1.77v-1.693l-3.518-.8v4.253h-5.263v-1.725h3.466a.564.564,0,0,0,.033-.124c0-1.035.005-2.07,0-3.105a.337.337,0,0,0-.138-.249,27.458,27.458,0,0,1-8.55-7.8,1.368,1.368,0,0,0-.162-.156Zm21.171.059a6.175,6.175,0,0,0-6.156-6.154,6.175,6.175,0,0,0-6.159,6.152,6.175,6.175,0,0,0,6.156,6.155,6.176,6.176,0,0,0,6.159-6.153Z" transform="translate(1077.68 399.776)" fill="#424a52"/>
      <path id="Path_71" data-name="Path 71" d="M-837.09,54.857V53.11h1.771v1.747Z" transform="translate(851.22 -24.857)" fill="#de3b21"/>
      <path id="Path_72" data-name="Path 72" d="M-835.089-426.209h-1.731v-1.731h1.731Z" transform="translate(850.966 427.94)" fill="#de3b21"/>
      <path id="Path_73" data-name="Path 73" d="M-1046.49-396.273V-398h1.734v1.729Z" transform="translate(1048.331 399.767)" fill="#de3b21"/>
      <path id="Path_74" data-name="Path 74" d="M-627.22-396.39v-1.73h1.731v1.73Z" transform="translate(653.668 399.88)" fill="#de3b21"/>
      <path id="Path_75" data-name="Path 75" d="M-1044.637,23.11v1.728h-1.733V23.11Z" transform="translate(1048.218 3.373)" fill="#de3b21"/>
      <path id="Path_76" data-name="Path 76" d="M-627.13,22.92h1.725v1.74h-1.725Z" transform="translate(653.583 3.551)" fill="#de3b21"/>
      <path id="Path_77" data-name="Path 77" d="M-888.163-243.242a4.432,4.432,0,0,1-4.426,4.416A4.432,4.432,0,0,1-897-243.259a4.433,4.433,0,0,1,4.412-4.4A4.432,4.432,0,0,1-888.163-243.242Zm-4.4,2.648a2.673,2.673,0,0,0,2.635-2.656,2.677,2.677,0,0,0-2.648-2.642,2.673,2.673,0,0,0-2.65,2.67A2.679,2.679,0,0,0-892.567-240.594Z" transform="translate(907.595 258.231)" fill="#de3b21"/>
      <path id="Path_78" data-name="Path 78" d="M-835.24-186.862a.889.889,0,0,0-.875-.888.89.89,0,0,0-.885.875.889.889,0,0,0,.875.885A.888.888,0,0,0-835.24-186.862Z" transform="translate(851.136 201.857)" fill="#424a52"/>
      <path id="Path_79" data-name="Path 79" d="M-835.25-186.824a.888.888,0,0,1-.885.875.889.889,0,0,1-.875-.885.89.89,0,0,1,.885-.875A.889.889,0,0,1-835.25-186.824Z" transform="translate(851.145 201.819)" fill="#de3b21"/>
    </g>
  </g>
</svg>
