<svg xmlns="http://www.w3.org/2000/svg" width="33.922" height="30.793" viewBox="0 0 33.922 30.793">
  <g id="Group_601" data-name="Group 601" transform="translate(-911 -845.708)">
    <g id="Group_599" data-name="Group 599" transform="translate(1375.045 905.062)">
      <path id="Path_129" data-name="Path 129" d="M-446.138,4.382h14.253a1.583,1.583,0,0,1,1.754,1.767q0,10.536.008,21.072a1.674,1.674,0,0,1-1.806,1.8q-15.155-.035-30.309,0a1.675,1.675,0,0,1-1.8-1.807q.024-10.283.008-20.567c0-.757-.043-1.514.012-2.271Z" transform="translate(0 -57.585)" fill="#424a52"/>
      <path id="Path_130" data-name="Path 130" d="M-445.984-53.2l-17.879,0c0-1.528-.021-3.055,0-4.583a1.512,1.512,0,0,1,1.618-1.562q6.081-.006,12.161,0a1.532,1.532,0,0,1,1.483.9Q-447.29-55.833-445.984-53.2Z" transform="translate(-0.154)" fill="#de3b21"/>
    </g>
    <g id="Group_600" data-name="Group 600" transform="translate(837.355 873.588)">
      <text id=":_" data-name=":(" transform="translate(87.645 -6.588)" fill="#fff" font-size="9" font-family="OpenSans-Light, Open Sans" font-weight="300"><tspan x="0" y="0">:(</tspan></text>
    </g>
  </g>
</svg>
