<svg xmlns="http://www.w3.org/2000/svg" width="20" height="20" viewBox="0 0 20 20">
  <g id="Group_239" data-name="Group 239" transform="translate(-1505 -2645)">
    <path id="Path_9" data-name="Path 9" d="M210.636,208.818A1.818,1.818,0,1,1,208.818,207,1.818,1.818,0,0,1,210.636,208.818Zm0,0" transform="translate(1306.182 2446.182)" fill="#fff"/>
    <path id="Path_10" data-name="Path 10" d="M144.209,136.743a1.806,1.806,0,0,0-1.035-1.035,3.017,3.017,0,0,0-1.013-.188c-.575-.026-.748-.032-2.2-.032s-1.629.005-2.2.032a3.019,3.019,0,0,0-1.013.188,1.807,1.807,0,0,0-1.035,1.035,3.019,3.019,0,0,0-.188,1.013c-.026.575-.032.748-.032,2.2s.006,1.629.032,2.2a3.018,3.018,0,0,0,.188,1.013,1.806,1.806,0,0,0,1.035,1.035,3.013,3.013,0,0,0,1.013.188c.575.026.748.032,2.2.032s1.629-.006,2.2-.032a3.014,3.014,0,0,0,1.013-.188,1.806,1.806,0,0,0,1.035-1.035,3.02,3.02,0,0,0,.188-1.013c.026-.575.032-.748.032-2.2s-.006-1.629-.032-2.2A3.014,3.014,0,0,0,144.209,136.743Zm-4.252,6.018a2.8,2.8,0,1,1,2.8-2.8A2.8,2.8,0,0,1,139.957,142.761Zm2.912-5.058a.655.655,0,1,1,.655-.655A.655.655,0,0,1,142.868,137.7Zm0,0" transform="translate(1375.043 2515.04)" fill="#fff"/>
    <path id="Path_11" data-name="Path 11" d="M10,0A10,10,0,1,0,20,10,10,10,0,0,0,10,0Zm5.708,12.367a4.213,4.213,0,0,1-.267,1.394,2.936,2.936,0,0,1-1.679,1.679,4.216,4.216,0,0,1-1.394.267c-.612.028-.808.035-2.367.035s-1.755-.007-2.368-.035a4.216,4.216,0,0,1-1.394-.267,2.936,2.936,0,0,1-1.679-1.679,4.212,4.212,0,0,1-.267-1.394c-.028-.612-.035-.808-.035-2.368s.007-1.755.035-2.367a4.213,4.213,0,0,1,.267-1.394,2.938,2.938,0,0,1,1.68-1.679,4.217,4.217,0,0,1,1.394-.267c.612-.028.808-.035,2.367-.035s1.755.007,2.367.035a4.218,4.218,0,0,1,1.394.267,2.937,2.937,0,0,1,1.679,1.68,4.212,4.212,0,0,1,.267,1.394c.028.612.034.808.034,2.367S15.736,11.755,15.708,12.367Zm0,0" transform="translate(1505 2645)" fill="#fff"/>
  </g>
</svg>
